<svg width="32" height="32" viewBox="0 0 32 32" fill="none" xmlns="http://www.w3.org/2000/svg">
<path d="M31.154 27.4255C29.9596 29.3607 28.5989 30.6458 26.7998 31.8855L16.9121 22.2549C17.8646 20.3499 19.4369 18.959 21.2663 17.7041L31.154 27.4255Z" fill="#3D8CC9"/>
<path d="M8.74805 6.77298C8.92947 4.70171 9.0353 2.61532 9.06554 0.513805C13.6163 0.634755 18.1822 0.589399 22.7329 0.377736C27.0115 0.33238 30.5342 5.53324 30.5493 9.2827L30.5645 15.2471L30.5796 21.2114C30.5796 22.3 30.5191 23.2978 29.8236 24.5073C28.1001 22.3907 25.2729 20.6974 23.9122 18.233C22.5969 14.2417 25.9532 7.06024 20.4802 7.1056L9.14114 7.19631C8.83876 7.19631 8.76317 6.8637 8.76317 6.75787L8.74805 6.77298Z" fill="#EF5223"/>
<path d="M5.72431 29.8748C3.35066 28.8921 -0.50463 25.1578 0.0547653 21.9375C0.205953 17.6437 0.311785 13.35 0.37226 9.1016C2.48889 9.04113 4.5904 9.08648 6.6768 9.23767L6.64656 28.7409C6.6768 29.8143 6.37442 30.1923 5.72431 29.8748Z" fill="#1E1E1E"/>
<path d="M22.3852 30.6157C17.9251 30.4192 13.4651 30.3436 8.98994 30.4041C8.70268 30.2378 8.94458 24.0239 9.18648 23.782C9.35279 23.6308 9.65517 23.7216 9.88195 23.8123C12.0137 24.1298 14.7351 23.2982 16.8366 24.0693L23.1562 30.1319C23.0807 30.4948 22.5666 30.646 22.3701 30.6006L22.3852 30.6157Z" fill="#EF5223"/>
<path d="M6.48002 7.1963L0.432505 7.21142C0.190605 6.1531 0.024298 0.710338 0.492981 0.392843C0.75 0.211418 6.48002 0.317249 6.67657 0.544031C6.88823 0.80105 6.67657 6.31941 6.49514 7.18118L6.48002 7.1963Z" fill="#1E1E1E"/>
<path d="M5.72423 29.8748C6.40458 29.5573 6.51041 28.8618 6.51041 28.0001V9.47955H0.432657C0.357063 13.8186 0.735033 17.9461 0.0546875 21.9374V8.7085H6.87326L6.84302 30.1772C6.54065 30.4493 5.96613 29.9504 5.73935 29.8597L5.72423 29.8748Z" fill="#1E1E1E"/>
<path d="M21.977 0.393237H22.7329C18.3787 0.438594 13.828 1.25501 9.14114 0.650257V6.42563L21.2362 6.65242L8.74805 6.78849V0.393237C13.0871 0.0606241 17.6379 0.0757429 21.977 0.393237Z" fill="#EA400D"/>
<path d="M6.48019 7.19656V0.771076H0.432675V7.19656C0.311725 7.2268 0.0698242 7.06049 0.0698242 6.78836V0.0151367H6.85816V6.45574C6.85816 6.84883 6.76745 7.2268 6.48019 7.19656Z" fill="#1E1E1E"/>
<path d="M9.88196 23.8119C9.41327 24.084 9.08066 24.5678 9.09578 25.3086L9.15625 30.1769C13.707 30.5851 18.1519 29.7082 22.4003 30.6153H8.74805L8.77828 23.4944C9.15625 23.2373 9.65517 23.7211 9.88196 23.8119Z" fill="#E33E0E"/>
<path d="M21.9767 0.393089H8.74779C8.71756 0.105832 9.09553 0 9.48862 0H21.2359C21.629 0 22.007 0.0907128 21.9767 0.393089Z" fill="#EF5223"/>
</svg>
