<svg width="84" height="22" viewBox="0 0 84 22" fill="none" xmlns="http://www.w3.org/2000/svg">
<g clip-path="url(#clip0_680_24624)">
<path d="M62.2899 4.0498C62.1899 4.0498 62.0599 4.0498 61.9999 4.2898L57.9199 20.8398C56.6499 20.7998 55.6999 20.9498 54.6399 20.7398L50.8599 3.9998L50.7899 20.2998C50.6799 20.8598 47.5699 20.7298 47.4199 20.6398C47.1599 14.0698 47.2299 7.0598 47.3899 0.419805L53.4799 0.439805C53.6399 0.739805 53.7499 0.859805 53.8299 0.789805L56.6699 12.8398L60.0799 0.299805C62.1999 0.379805 64.2299 0.469805 66.1699 0.589805V20.6298L62.4499 20.6698C62.4799 15.1098 62.4299 9.5698 62.2999 4.0598L62.2899 4.0498Z" fill="white"/>
<path d="M75.0397 0.0400391C75.8697 0.230039 76.7097 0.230039 77.5397 0.0400391C80.1197 0.190039 82.3497 2.08004 82.8597 4.71004C81.5097 5.26004 80.4097 5.74004 79.1697 6.08004C78.5897 4.07004 76.7497 3.03004 75.1297 3.86004C74.4097 4.23004 74.0497 4.93004 74.0997 5.65004C74.2597 8.13004 80.2897 8.06004 82.3697 11.26C83.6497 13.24 83.6897 15.79 82.4397 17.96C81.4697 19.64 79.4497 21.05 77.2997 21.05C76.4797 20.83 75.6297 20.83 74.8097 21.05C71.7297 20.74 69.5897 18.47 68.9297 15.54L72.8197 14.37C73.1397 15.88 73.9497 16.8 75.2097 17.45C76.2597 17.99 78.5597 17.09 78.7597 15.63C78.9097 14.56 78.3697 13.66 77.3097 13.23L73.4897 11.69C71.0097 10.69 69.5597 8.48004 69.7097 5.77004C69.8897 2.73004 72.1097 0.280039 75.0497 0.0400391H75.0397Z" fill="white"/>
<path d="M30.0395 17.0498C32.2295 17.1298 34.3995 17.2198 36.5295 17.3198L36.4995 20.6798C32.9095 20.6198 29.3495 20.6598 25.8195 20.8098L25.5195 0.809805C25.5195 0.489805 25.6095 0.299805 25.8095 0.299805C27.2195 0.379805 28.5795 0.469805 29.8795 0.589805L30.0295 17.0598L30.0395 17.0498Z" fill="white"/>
<path d="M43.29 0.549805V20.5498H39.04V0.549805H43.29V20.5498L42.79 20.3198V0.849805L43.29 0.549805Z" fill="#231F20"/>
<path d="M53.83 0.800059L53.73 1.15006C53.54 1.80006 53.55 0.590059 53.43 0.590059L47.55 0.550059V20.5001C48.73 20.5301 49.86 20.7601 50.8 20.3001C50.85 20.4301 50.84 20.8001 50.55 20.8001H47.04V0.310059H53.53C53.81 0.310059 53.96 0.680059 53.84 0.810059L53.83 0.800059Z" fill="white"/>
<path d="M62.2903 4.05004C62.4003 4.05004 62.5403 4.05004 62.5403 4.31004V20.54H66.0403V0.550039H60.5603C60.4103 0.550039 60.2303 0.810039 60.1603 0.770039C60.0303 0.700039 60.0003 0.400039 60.0803 0.290039H66.3003V20.78H62.2903V4.05004Z" fill="white"/>
<path d="M43.29 0.550039V20.55C43.32 20.65 43.2 20.79 43.03 20.79H38.79V0.310039L42.81 0.290039C43.07 0.290039 43.32 0.360039 43.3 0.550039H43.29Z" fill="white"/>
<path d="M25.8199 20.7998C25.7199 20.6798 25.8799 20.5498 26.0599 20.5498H36.2699V17.3398C34.0999 17.0698 31.9799 17.6798 30.0299 17.0498H36.7699V20.7998H25.8099H25.8199Z" fill="white"/>
<path d="M30.04 17.0498L29.73 0.569805L26.06 0.529805C25.87 0.529805 25.72 0.439805 25.82 0.299805L30.04 0.319805V17.0598V17.0498Z" fill="white"/>
<path d="M77.54 0.0399372C76.88 0.479937 75.7 0.479937 75.04 0.0399372C75.85 -0.0300628 76.73 -0.0100628 77.54 0.0399372Z" fill="white"/>
<path d="M77.2898 21.0499H74.7998C75.4598 20.6199 76.6398 20.6099 77.2898 21.0499Z" fill="white"/>
<path d="M5.79004 4.77023C5.91004 3.40023 5.98004 2.02023 6.00004 0.630234C9.01004 0.710234 12.03 0.680234 15.04 0.540234C17.87 0.510234 20.2 3.95023 20.21 6.43023L20.23 14.3202C20.23 15.0402 20.19 15.7002 19.73 16.5002C18.59 15.1002 16.72 13.9802 15.82 12.3502C14.95 9.71023 17.17 4.96023 13.55 4.99023L6.05004 5.05023C5.85004 5.05023 5.80004 4.83023 5.80004 4.76023L5.79004 4.77023Z" fill="#EF5223"/>
<path d="M3.79013 20.0501C2.22013 19.4001 -0.32987 16.9301 0.0401296 14.8001C0.14013 11.9601 0.21013 9.12011 0.25013 6.31011C1.65013 6.27011 3.04013 6.30011 4.42013 6.40011L4.40013 19.3001C4.42013 20.0101 4.22013 20.2601 3.79013 20.0501Z" fill="white"/>
<path d="M20.6104 18.43C19.8204 19.71 18.9204 20.56 17.7304 21.38L11.1904 15.01C11.8204 13.75 12.8604 12.83 14.0704 12L20.6104 18.43Z" fill="#3D8CC9"/>
<path d="M14.8096 20.5398C11.8596 20.4098 8.90964 20.3598 5.94964 20.3998C5.75964 20.2898 5.91964 16.1798 6.07964 16.0198C6.18964 15.9198 6.38964 15.9798 6.53964 16.0398C7.94964 16.2498 9.74964 15.6998 11.1396 16.2098L15.3196 20.2198C15.2696 20.4598 14.9296 20.5598 14.7996 20.5298L14.8096 20.5398Z" fill="#EF5223"/>
<path d="M4.29002 5.05015L0.290022 5.06015C0.130022 4.36015 0.0200216 0.76015 0.330022 0.55015C0.500022 0.43015 4.29002 0.50015 4.42002 0.65015C4.56002 0.82015 4.42002 4.47015 4.30002 5.04015L4.29002 5.05015Z" fill="white"/>
<path d="M3.79004 20.0498C4.24004 19.8398 4.31004 19.3798 4.31004 18.8098V6.5598H0.290039C0.240039 9.4298 0.490039 12.1598 0.0400391 14.7998V6.0498H4.55004L4.53004 20.2498C4.33004 20.4298 3.95004 20.0998 3.80004 20.0398L3.79004 20.0498Z" fill="white"/>
<path d="M14.54 0.549944H15.04C12.16 0.579944 9.15004 1.11994 6.05004 0.719944V4.53994L14.05 4.68994L5.79004 4.77994V0.549944C8.66004 0.329944 11.67 0.339944 14.54 0.549944Z" fill="#EA400D"/>
<path d="M4.2898 5.0498V0.799805H0.289805V5.0498C0.209805 5.0698 0.0498047 4.9598 0.0498047 4.7798V0.299805H4.5398V4.5598C4.5398 4.8198 4.4798 5.0698 4.2898 5.0498Z" fill="white"/>
<path d="M6.54004 16.04C6.23004 16.22 6.01004 16.54 6.02004 17.03L6.06004 20.25C9.07004 20.52 12.01 19.94 14.82 20.54H5.79004L5.81004 15.83C6.06004 15.66 6.39004 15.98 6.54004 16.04Z" fill="#E33E0E"/>
<path d="M14.5402 0.550039H5.79019C5.77019 0.360039 6.02019 0.290039 6.28019 0.290039H14.0502C14.3102 0.290039 14.5602 0.350039 14.5402 0.550039Z" fill="#EF5223"/>
</g>
<defs>
<clipPath id="clip0_680_24624">
<rect width="83.34" height="21.38" fill="white"/>
</clipPath>
</defs>
</svg>
